# xmcd
# 
# Track frame offsets:
#     150
#     22512
#     72202
#     99281
#     124640
#     154383
#     182720
#     207218
#     233337
#     274721
#     304291
# 
# Disc length: 4264
# 
# Revision: 1
# Processed by: cddbd v1.5.2PL0 Copyright (c) Steve Scherf et al.
# Submitted via: fre:ac v1.0.17
# 
DISCID=8310a60b
DTITLE=Various Artist - The Jazz box CD1
DYEAR=0
DGENRE=Jazz
TTITLE0=Sonny Stitt - I can't get started
TTITLE1=Thelonious Monk - Epistrophy
TTITLE2=McCoy Tyner - Monk's dream
TTITLE3=Gary Burton - African Flower
TTITLE4=Donald Byrd and Herbie Hancock - Currio's
TTITLE5=Art Blakey - Au Private
TTITLE6=Cannonball Adderley - Straight Life
TTITLE7=Dave Brubeck Quartet - Blue Rondo a la turk
TTITLE8=Wynton Marsalis - My funny valentine
TTITLE9=Paul Horn - Samba de Orfeu
TTITLE10=Art Pepper - The breeze and I
EXTD=
EXTT0=
EXTT1=
EXTT2=
EXTT3=
EXTT4=
EXTT5=
EXTT6=
EXTT7=
EXTT8=
EXTT9=
EXTT10=
PLAYORDER=
